<svg xmlns="http://www.w3.org/2000/svg" xmlns:xlink="http://www.w3.org/1999/xlink" width="64" height="64" id="lock">
  <defs>
    <linearGradient id="a">
      <stop offset="0" stop-color="#000092"></stop>
      <stop offset="1" stop-color="#ff00f3"></stop>
    </linearGradient>
    <linearGradient xlink:href="#a" id="b" x1="2" x2="60" y1="32" y2="32" gradientUnits="userSpaceOnUse"></linearGradient>
  </defs>
  <path fill="url(#b)" d="M30 12v3h1v13h-7v-9H10v-1H7v3h3v-1h13v8h-5.5c-.835 0-1.5.712-1.5 1.549V36H5v-1H2v3h3v-1h11v6.994H8V49H7v3h3v-3H9v-4.006h7V47h-2.5a.5.5 0 0 0-.5.5v1.334C13 50.564 14.336 52 16.014 52h30.98c1.678 0 3.014-1.436 3.014-3.166V47.5a.5.5 0 0 0-.5-.5H47v-2.006h7V49h-1v3h3v-3h-1v-5.006h-8V37h12v1h3v-3h-3v1H47v-6.451c0-.837-.665-1.549-1.5-1.549H40v-8h13v1h3v-3h-3v1H39v9h-7V15h1v-3h-3zm10 .5v3h3v-3h-3zm-9 .5h1v1h-1v-1zm10 .5h1v1h-1v-1zM22 15v1h1v-1h-1zM8 19h1v1H8v-1zm20 0v1h1v-1h-1zm26 0h1v1h-1v-1zm-36 4v1h1v-1h-1zm7 0v3h3v-3h-3zm10 0v1h1v-1h-1zm18 0v1h1v-1h-1zm-27 1h1v1h-1v-1zm20 1v1h1v-1h-1zm-36 1v3h3v-3h-3zm1 1h1v1h-1v-1zm6.5 2h28c.273 0 .5.225.5.549V47H17V29.549c0-.324.227-.549.5-.549zM51 29v3h3v-3h-3zm1 1h1v1h-1v-1zm-33 1v14h25V31H19zm1 1h23v12H20V32zm11.5 1a2.504 2.504 0 0 0-2.5 2.496V36h-.625c-.748 0-1.375.609-1.375 1.357v4.288c0 .748.627 1.355 1.375 1.355h6.25c.748 0 1.375-.607 1.375-1.355v-4.288C36 36.61 35.373 36 34.625 36H34v-.504A2.504 2.504 0 0 0 31.5 33zm0 1c.84 0 1.5.66 1.5 1.496V36h-3v-.504c0-.836.66-1.496 1.5-1.496zM3 36h1v1H3v-1zm57 0h1v1h-1v-1zm-31.625 1h6.25c.222 0 .375.156.375.357v4.288c0 .2-.153.355-.375.355h-6.25c-.222 0-.375-.154-.375-.355v-4.288c0-.2.153-.357.375-.357zM10.5 39v1h1v-1h-1zM29 39v1h1v-1h-1zm2 0v1h1v-1h-1zm2 0v1h1v-1h-1zm22 0v3h3v-3h-3zm1 1h1v1h-1v-1zM5 44v1h1v-1H5zm54 1v1h1v-1h-1zm-45 3h12.041c.076.463.256.885.521 1.225.36.459.896.775 1.5.775h6.875c.605 0 1.142-.316 1.5-.775.266-.34.446-.762.522-1.225h12.049v.834c0 1.224-.906 2.166-2.014 2.166h-30.98C14.906 51 14 50.058 14 48.834V48zm13.158 0h8.684c-.063.211-.078.464-.192.61-.206.263-.451.39-.712.39h-6.876c-.26 0-.506-.127-.712-.39-.114-.146-.13-.399-.192-.61zM8 50h1v1H8v-1zm46 0h1v1h-1v-1z" color="#000" font-family="sans-serif" font-weight="400" overflow="visible" style="line-height:normal;text-indent:0;text-align:start;text-decoration-line:none;text-decoration-style:solid;text-decoration-color:#000;text-transform:none;block-progression:tb;isolation:auto;mix-blend-mode:normal"></path>
</svg>